<svg width="895" height="135" viewBox="0 0 895 135" fill="none" xmlns="http://www.w3.org/2000/svg">
<rect x="232.826" y="15.6523" width="11.7391" height="103.696" rx="5.86957" fill="#D9D9D9"/>
<rect x="250.435" width="11.7391" height="135" rx="5.86957" fill="#D9D9D9"/>
<rect x="270" y="21.5215" width="11.7391" height="91.9565" rx="5.86957" fill="#D9D9D9"/>
<rect x="287.608" y="31.3047" width="11.7391" height="68.4783" rx="5.86957" fill="#D9D9D9"/>
<rect x="307.174" y="21.5215" width="11.7391" height="88.0435" rx="5.86957" fill="#D9D9D9"/>
<rect x="324.782" y="33.2607" width="11.7391" height="68.4783" rx="5.86957" fill="#D9D9D9"/>
<rect x="344.348" y="21.5215" width="11.7391" height="91.9565" rx="5.86957" fill="#D9D9D9"/>
<rect x="361.956" y="35.2178" width="11.7391" height="68.4783" rx="5.86957" fill="#D9D9D9"/>
<rect x="381.521" y="29.3477" width="11.7391" height="80.2174" rx="5.86957" fill="#D9D9D9"/>
<rect x="399.131" y="23.4785" width="11.7391" height="91.9565" rx="5.86957" fill="#D9D9D9"/>
<rect x="418.695" y="7.82617" width="11.7391" height="119.348" rx="5.86957" fill="#D9D9D9"/>
<rect x="436.305" y="33.2607" width="11.7391" height="68.4783" rx="5.86957" fill="#D9D9D9"/>
<rect x="455.869" y="43.0439" width="11.7391" height="48.913" rx="5.86957" fill="#D9D9D9"/>
<rect x="473.479" y="31.3047" width="11.7391" height="72.3913" rx="5.86957" fill="#D9D9D9"/>
<rect x="493.044" y="39.1309" width="11.7391" height="56.7391" rx="5.86957" fill="#D9D9D9"/>
<rect x="510.652" y="50.8691" width="11.7391" height="33.2609" rx="5.86957" fill="#D9D9D9"/>
<rect x="530.218" y="29.3477" width="11.7391" height="76.3043" rx="5.86957" fill="#D9D9D9"/>
<rect x="547.826" y="19.5654" width="11.7391" height="95.8696" rx="5.86957" fill="#D9D9D9"/>
<rect x="567.392" y="33.2607" width="11.7391" height="68.4783" rx="5.86957" fill="#D9D9D9"/>
<rect x="586.957" y="21.5215" width="11.7391" height="88.0435" rx="5.86957" fill="#D9D9D9"/>
<rect x="604.565" y="29.3477" width="11.7391" height="76.3043" rx="5.86957" fill="#D9D9D9"/>
<rect x="624.131" y="23.4785" width="11.7391" height="88.0435" rx="5.86957" fill="#D9D9D9"/>
<rect x="641.739" y="35.2178" width="11.7391" height="64.5652" rx="5.86957" fill="#D9D9D9"/>
<rect x="659.348" y="27.3916" width="11.7391" height="80.2174" rx="5.86957" fill="#D9D9D9"/>
<rect x="659.348" y="27.3916" width="11.7391" height="80.2174" rx="5.86957" fill="#D9D9D9"/>
<rect x="678.913" y="17.6084" width="11.7391" height="99.7826" rx="5.86957" fill="#D9D9D9"/>
<rect x="698.479" y="43.0439" width="11.7391" height="48.913" rx="5.86957" fill="#D9D9D9"/>
<rect x="716.087" y="29.3477" width="11.7391" height="76.3043" rx="5.86957" fill="#D9D9D9"/>
<rect x="733.695" y="37.1738" width="11.7391" height="60.6522" rx="5.86957" fill="#D9D9D9"/>
<rect x="751.305" y="27.3916" width="11.7391" height="80.2174" rx="5.86957" fill="#D9D9D9"/>
<rect x="770.869" y="19.5654" width="11.7391" height="95.8696" rx="5.86957" fill="#D9D9D9"/>
<rect x="788.479" y="29.3477" width="11.7391" height="76.3043" rx="5.86957" fill="#D9D9D9"/>
<rect x="806.087" y="37.1738" width="11.7391" height="60.6522" rx="5.86957" fill="#D9D9D9"/>
<rect x="825.652" y="33.2607" width="11.7391" height="72.3913" rx="5.86957" fill="#D9D9D9"/>
<rect x="843.261" y="23.4785" width="11.7391" height="91.9565" rx="5.86957" fill="#D9D9D9"/>
<rect x="862.826" y="37.1738" width="11.7391" height="64.5652" rx="5.86957" fill="#D9D9D9"/>
<rect x="882.392" y="48.9131" width="11.7391" height="41.087" rx="5.86957" fill="#D9D9D9"/>
<circle cx="180.978" cy="67.5" r="26.413" fill="white"/>
<circle cx="220.109" cy="67.4997" r="4.8913" fill="#989898"/>
<path d="M89.9996 70.8886C92.6083 69.3825 92.6083 65.6171 89.9996 64.111L29.8365 29.3758C27.2278 27.8697 23.967 29.7524 23.967 32.7646V102.235C23.967 105.247 27.2278 107.13 29.8365 105.624L89.9996 70.8886Z" fill="#D9D9D9"/>
</svg>
