<svg width="79" height="91" viewBox="0 0 79 91" fill="none" xmlns="http://www.w3.org/2000/svg">
<g filter="url(#filter0_d_402_3418)">
<path fill-rule="evenodd" clip-rule="evenodd" d="M4 14.9474C4 6.69216 10.6922 0 18.9474 0H60.0526C68.3078 0 75 6.69217 75 14.9474V55.4369C75 60.6874 72.2452 65.5529 67.743 68.2542L47.1904 80.5858C42.4568 83.4259 36.5432 83.4259 31.8096 80.5858L11.257 68.2542C6.75478 65.5529 4 60.6874 4 55.4369V14.9474Z" fill="url(#paint0_linear_402_3418)"/>
<mask id="mask0_402_3418" style="mask-type:luminance" maskUnits="userSpaceOnUse" x="4" y="0" width="71" height="83">
<path fill-rule="evenodd" clip-rule="evenodd" d="M4 14.9474C4 6.69216 10.6922 0 18.9474 0H60.0526C68.3078 0 75 6.69217 75 14.9474V55.4369C75 60.6874 72.2452 65.5529 67.743 68.2542L47.1904 80.5858C42.4568 83.4259 36.5432 83.4259 31.8096 80.5858L11.257 68.2542C6.75478 65.5529 4 60.6874 4 55.4369V14.9474Z" fill="white"/>
</mask>
<g mask="url(#mask0_402_3418)">
<g filter="url(#filter1_d_402_3418)">
<path d="M27.7263 49.9554L25.6517 49.4367C18.4015 47.6234 13.2182 41.0166 13.2182 33.544V31.3901H23.0939C24.0923 31.3901 24.9002 30.5822 24.9002 29.5837C24.9002 28.5853 24.0923 27.7773 23.0939 27.7773C23.0939 27.7773 11.5437 27.7773 11.4119 27.7773C10.4134 27.7773 9.60547 28.5853 9.60547 29.5837V33.544C9.60547 42.6783 15.9142 50.7246 24.7767 52.9401L26.8513 53.4588C27.8119 53.7018 28.7979 53.1189 29.0405 52.1446C29.2838 51.1778 28.6947 50.1971 27.7263 49.9554Z" fill="#FEA832"/>
<path d="M69.4557 27.7773C69.3174 27.7773 57.7737 27.7773 57.7737 27.7773C56.7752 27.7773 55.9673 28.5853 55.9673 29.5837C55.9673 30.5822 56.7752 31.3901 57.7737 31.3901H67.6493V34.352C67.6493 41.5104 62.9371 47.8685 56.1031 49.9943L52.0688 51.2503C51.1162 51.5467 50.5834 52.5592 50.8798 53.5118C51.1749 54.4571 52.1781 54.9964 53.1413 54.7008L57.1757 53.4447C65.5285 50.8445 71.2621 43.0998 71.2621 34.352V29.5837C71.2621 28.5853 70.4541 27.7773 69.4557 27.7773Z" fill="#FE9923"/>
<rect x="35.0156" y="56.7998" width="10.8383" height="18.1843" fill="#FEA832"/>
<path d="M53.0794 76.9143V84.1398C53.0794 85.1513 52.2847 85.9462 51.273 85.9462H29.5964C28.5847 85.9462 27.79 85.1513 27.79 84.1398V76.9143C27.79 73.9156 30.2105 71.4951 33.2092 71.4951H47.6603C50.659 71.4951 53.0794 73.9156 53.0794 76.9143Z" fill="#FEDB41"/>
<path d="M60.304 22.5388L58.1365 44.4081C57.197 53.5482 49.6101 60.4126 40.4338 60.4126C31.2575 60.4126 23.6706 53.5482 22.7311 44.4081L20.5636 22.5388C20.4912 21.5271 21.2139 20.66 22.1893 20.5518H58.6783C59.6537 20.66 60.3764 21.5271 60.304 22.5388Z" fill="#FEDB41"/>
<path d="M63.9171 22.3581C63.9171 23.3696 63.1225 24.1645 62.1108 24.1645H18.7576C17.7459 24.1645 16.9512 23.3696 16.9512 22.3581C16.9512 21.3464 17.7459 20.5518 18.7576 20.5518H62.1108C63.1225 20.5518 63.9171 21.3464 63.9171 22.3581Z" fill="#FEA832"/>
<path d="M50.0447 34.9306L44.5173 34.0997L42.0606 29.1141C41.7354 28.5 41.0851 28.1748 40.4348 28.1748C39.7845 28.1748 39.1342 28.5 38.8091 29.1141L36.3524 34.0997L30.825 34.9306C29.3436 35.1112 28.7295 36.9537 29.8133 38.0013L33.8235 41.9032L32.8842 47.5152C32.6315 48.9963 34.1849 50.1162 35.4855 49.4298L40.4348 46.8287L45.3843 49.4298C46.6849 50.1162 48.2383 48.9963 47.9856 47.5152L47.0463 41.9032L51.0565 38.0013C52.1402 36.9537 51.526 35.1112 50.0447 34.9306Z" fill="#FEA832"/>
<path d="M56.6917 84.1404C56.6917 85.1518 55.897 85.9468 54.8853 85.9468H25.9831C24.9714 85.9468 24.1768 85.1518 24.1768 84.1404C24.1768 83.1287 24.9714 82.334 25.9831 82.334H54.8853C55.897 82.334 56.6917 83.1287 56.6917 84.1404Z" fill="#FEA832"/>
</g>
</g>
</g>
<defs>
<filter id="filter0_d_402_3418" x="0" y="0" width="79" height="90.7158" filterUnits="userSpaceOnUse" color-interpolation-filters="sRGB">
<feFlood flood-opacity="0" result="BackgroundImageFix"/>
<feColorMatrix in="SourceAlpha" type="matrix" values="0 0 0 0 0 0 0 0 0 0 0 0 0 0 0 0 0 0 127 0" result="hardAlpha"/>
<feOffset dy="4"/>
<feGaussianBlur stdDeviation="2"/>
<feComposite in2="hardAlpha" operator="out"/>
<feColorMatrix type="matrix" values="0 0 0 0 0 0 0 0 0 0 0 0 0 0 0 0 0 0 0.25 0"/>
<feBlend mode="normal" in2="BackgroundImageFix" result="effect1_dropShadow_402_3418"/>
<feBlend mode="normal" in="SourceGraphic" in2="effect1_dropShadow_402_3418" result="shape"/>
</filter>
<filter id="filter1_d_402_3418" x="2.13178" y="16.8149" width="76.6036" height="80.3419" filterUnits="userSpaceOnUse" color-interpolation-filters="sRGB">
<feFlood flood-opacity="0" result="BackgroundImageFix"/>
<feColorMatrix in="SourceAlpha" type="matrix" values="0 0 0 0 0 0 0 0 0 0 0 0 0 0 0 0 0 0 127 0" result="hardAlpha"/>
<feOffset dy="3.73684"/>
<feGaussianBlur stdDeviation="3.73684"/>
<feColorMatrix type="matrix" values="0 0 0 0 0.850091 0 0 0 0 0 0 0 0 0 0 0 0 0 0.5 0"/>
<feBlend mode="normal" in2="BackgroundImageFix" result="effect1_dropShadow_402_3418"/>
<feBlend mode="normal" in="SourceGraphic" in2="effect1_dropShadow_402_3418" result="shape"/>
</filter>
<linearGradient id="paint0_linear_402_3418" x1="4" y1="0" x2="4" y2="85.2" gradientUnits="userSpaceOnUse">
<stop stop-color="#FF7C83"/>
<stop offset="1" stop-color="#FF1AB1"/>
</linearGradient>
</defs>
</svg>
