<svg width="796" height="203" viewBox="0 0 796 203" fill="none" xmlns="http://www.w3.org/2000/svg">
<rect width="796" height="203" rx="33" fill="#FF2733"/>
<circle cx="125" cy="100" r="51.1765" stroke="#551417" stroke-width="13.6471"/>
<path fill-rule="evenodd" clip-rule="evenodd" d="M145.472 89.7655H142.323V86.6165C142.323 77.0499 134.571 69.2949 125.001 69.2949C115.435 69.2949 107.68 77.0499 107.68 86.6165V89.7655H104.531C102.648 89.7655 101.119 91.294 101.119 93.1773V120.471C101.119 122.355 102.648 123.883 104.531 123.883H145.472C147.355 123.883 148.884 122.355 148.884 120.471V93.1773C148.884 91.294 147.355 89.7655 145.472 89.7655ZM125.001 113.649C121.231 113.649 118.178 110.595 118.178 106.825C118.178 103.055 121.231 100.002 125.001 100.002C128.771 100.002 131.825 103.055 131.825 106.825C131.825 110.595 128.771 113.649 125.001 113.649ZM114.503 86.6165V89.7656H135.499V86.6165C135.499 80.8267 130.791 76.1185 125.001 76.1185C119.212 76.1185 114.503 80.8267 114.503 86.6165Z" fill="white"/>
<path d="M212.857 80H205.867L214.946 53.0909H223.605L232.684 80H225.694L219.374 59.8707H219.164L212.857 80ZM211.924 69.4098H226.535V74.3501H211.924V69.4098ZM217.062 50.5288L219.716 44.603H225.405L221.437 50.5288H217.062ZM251.861 53.0909H258.352V70.4478C258.352 72.4537 257.874 74.2012 256.92 75.6903C255.965 77.1707 254.633 78.3182 252.925 79.1328C251.217 79.9387 249.233 80.3416 246.973 80.3416C244.687 80.3416 242.69 79.9387 240.982 79.1328C239.274 78.3182 237.947 77.1707 237.001 75.6903C236.055 74.2012 235.581 72.4537 235.581 70.4478V53.0909H242.085V69.8828C242.085 70.8113 242.287 71.6391 242.69 72.3661C243.102 73.0932 243.675 73.6625 244.411 74.0742C245.147 74.4859 246.001 74.6918 246.973 74.6918C247.945 74.6918 248.795 74.4859 249.522 74.0742C250.258 73.6625 250.832 73.0932 251.243 72.3661C251.655 71.6391 251.861 70.8113 251.861 69.8828V53.0909ZM272.375 80H262.428V53.0909H272.361C275.103 53.0909 277.464 53.6296 279.443 54.707C281.432 55.7757 282.965 57.3174 284.042 59.332C285.12 61.3379 285.658 63.738 285.658 66.5323C285.658 69.3353 285.12 71.7442 284.042 73.7589C282.974 75.7736 281.445 77.3196 279.457 78.397C277.468 79.4657 275.108 80 272.375 80ZM268.932 74.4553H272.125C273.632 74.4553 274.906 74.2012 275.948 73.6932C277 73.1764 277.792 72.3398 278.327 71.1836C278.87 70.0186 279.141 68.4682 279.141 66.5323C279.141 64.5965 278.87 63.0548 278.327 61.9073C277.784 60.7511 276.982 59.9189 275.922 59.4109C274.871 58.8941 273.575 58.6357 272.033 58.6357H268.932V74.4553ZM295.959 53.0909V80H289.456V53.0909H295.959ZM325.441 66.5455C325.441 69.5062 324.871 72.0157 323.732 74.0742C322.594 76.1327 321.052 77.6963 319.107 78.7649C317.172 79.8336 314.999 80.3679 312.59 80.3679C310.173 80.3679 307.996 79.8292 306.06 78.7518C304.124 77.6744 302.587 76.1108 301.448 74.0611C300.318 72.0026 299.753 69.4974 299.753 66.5455C299.753 63.5848 300.318 61.0752 301.448 59.0167C302.587 56.9582 304.124 55.3946 306.06 54.326C307.996 53.2573 310.173 52.723 312.59 52.723C314.999 52.723 317.172 53.2573 319.107 54.326C321.052 55.3946 322.594 56.9582 323.732 59.0167C324.871 61.0752 325.441 63.5848 325.441 66.5455ZM318.792 66.5455C318.792 64.7936 318.542 63.3132 318.043 62.1044C317.553 60.8956 316.843 59.9802 315.915 59.3583C314.995 58.7364 313.887 58.4254 312.59 58.4254C311.303 58.4254 310.195 58.7364 309.266 59.3583C308.338 59.9802 307.624 60.8956 307.124 62.1044C306.634 63.3132 306.389 64.7936 306.389 66.5455C306.389 68.2973 306.634 69.7777 307.124 70.9865C307.624 72.1953 308.338 73.1107 309.266 73.7326C310.195 74.3545 311.303 74.6655 312.59 74.6655C313.887 74.6655 314.995 74.3545 315.915 73.7326C316.843 73.1107 317.553 72.1953 318.043 70.9865C318.542 69.7777 318.792 68.2973 318.792 66.5455ZM337.187 80V53.0909H348.408C350.423 53.0909 352.109 53.3756 353.466 53.945C354.833 54.5143 355.858 55.3114 356.541 56.3363C357.233 57.3611 357.579 58.5481 357.579 59.897C357.579 60.9219 357.364 61.8372 356.935 62.6431C356.506 63.4402 355.915 64.1016 355.161 64.6271C354.408 65.1527 353.537 65.5206 352.547 65.7308V65.9936C353.633 66.0462 354.636 66.3396 355.556 66.8739C356.484 67.4083 357.229 68.1528 357.789 69.1076C358.35 70.0536 358.63 71.1748 358.63 72.4712C358.63 73.9165 358.262 75.2086 357.526 76.3473C356.791 77.4773 355.726 78.3707 354.334 79.0277C352.941 79.6759 351.25 80 349.262 80H337.187ZM343.691 74.7575H347.711C349.122 74.7575 350.16 74.4903 350.825 73.956C351.5 73.4216 351.837 72.6771 351.837 71.7223C351.837 71.0303 351.675 70.4347 351.351 69.9354C351.027 69.4273 350.567 69.0375 349.971 68.766C349.376 68.4857 348.662 68.3455 347.83 68.3455H343.691V74.7575ZM343.691 64.1541H347.291C348.001 64.1541 348.631 64.0359 349.183 63.7994C349.735 63.5629 350.164 63.2212 350.471 62.7745C350.786 62.3278 350.944 61.7891 350.944 61.1584C350.944 60.2562 350.624 59.5466 349.985 59.0298C349.345 58.513 348.482 58.2546 347.396 58.2546H343.691V64.1541ZM361.757 80V53.0909H368.261V74.718H379.456V80H361.757ZM407.173 66.5455C407.173 69.5062 406.604 72.0157 405.465 74.0742C404.326 76.1327 402.784 77.6963 400.84 78.7649C398.904 79.8336 396.732 80.3679 394.323 80.3679C391.905 80.3679 389.728 79.8292 387.793 78.7518C385.857 77.6744 384.319 76.1108 383.181 74.0611C382.051 72.0026 381.486 69.4974 381.486 66.5455C381.486 63.5848 382.051 61.0752 383.181 59.0167C384.319 56.9582 385.857 55.3946 387.793 54.326C389.728 53.2573 391.905 52.723 394.323 52.723C396.732 52.723 398.904 53.2573 400.84 54.326C402.784 55.3946 404.326 56.9582 405.465 59.0167C406.604 61.0752 407.173 63.5848 407.173 66.5455ZM400.525 66.5455C400.525 64.7936 400.275 63.3132 399.776 62.1044C399.285 60.8956 398.576 59.9802 397.647 59.3583C396.727 58.7364 395.619 58.4254 394.323 58.4254C393.035 58.4254 391.927 58.7364 390.999 59.3583C390.07 59.9802 389.356 60.8956 388.857 62.1044C388.366 63.3132 388.121 64.7936 388.121 66.5455C388.121 68.2973 388.366 69.7777 388.857 70.9865C389.356 72.1953 390.07 73.1107 390.999 73.7326C391.927 74.3545 393.035 74.6655 394.323 74.6655C395.619 74.6655 396.727 74.3545 397.647 73.7326C398.576 73.1107 399.285 72.1953 399.776 70.9865C400.275 69.7777 400.525 68.2973 400.525 66.5455ZM421.258 70.3295H426.514L428.748 73.1808L431.678 76.5444L436.184 82.1023H430.298L427.145 78.3313L425.279 75.6509L421.258 70.3295ZM436.368 66.5455C436.368 69.5062 435.799 72.0157 434.66 74.0742C433.521 76.1327 431.98 77.6963 430.035 78.7649C428.099 79.8336 425.927 80.3679 423.518 80.3679C421.1 80.3679 418.924 79.8292 416.988 78.7518C415.052 77.6744 413.515 76.1108 412.376 74.0611C411.246 72.0026 410.681 69.4974 410.681 66.5455C410.681 63.5848 411.246 61.0752 412.376 59.0167C413.515 56.9582 415.052 55.3946 416.988 54.326C418.924 53.2573 421.1 52.723 423.518 52.723C425.927 52.723 428.099 53.2573 430.035 54.326C431.98 55.3946 433.521 56.9582 434.66 59.0167C435.799 61.0752 436.368 63.5848 436.368 66.5455ZM429.72 66.5455C429.72 64.7936 429.47 63.3132 428.971 62.1044C428.48 60.8956 427.771 59.9802 426.842 59.3583C425.923 58.7364 424.815 58.4254 423.518 58.4254C422.23 58.4254 421.122 58.7364 420.194 59.3583C419.265 59.9802 418.551 60.8956 418.052 62.1044C417.562 63.3132 417.316 64.7936 417.316 66.5455C417.316 68.2973 417.562 69.7777 418.052 70.9865C418.551 72.1953 419.265 73.1107 420.194 73.7326C421.122 74.3545 422.23 74.6655 423.518 74.6655C424.815 74.6655 425.923 74.3545 426.842 73.7326C427.771 73.1107 428.48 72.1953 428.971 70.9865C429.47 69.7777 429.72 68.2973 429.72 66.5455ZM456.481 53.0909H462.972V70.4478C462.972 72.4537 462.494 74.2012 461.54 75.6903C460.585 77.1707 459.253 78.3182 457.545 79.1328C455.837 79.9387 453.853 80.3416 451.593 80.3416C449.307 80.3416 447.31 79.9387 445.602 79.1328C443.894 78.3182 442.567 77.1707 441.621 75.6903C440.675 74.2012 440.202 72.4537 440.202 70.4478V53.0909H446.706V69.8828C446.706 70.8113 446.907 71.6391 447.31 72.3661C447.722 73.0932 448.295 73.6625 449.031 74.0742C449.767 74.4859 450.621 74.6918 451.593 74.6918C452.566 74.6918 453.415 74.4859 454.142 74.0742C454.878 73.6625 455.452 73.0932 455.864 72.3661C456.275 71.6391 456.481 70.8113 456.481 69.8828V53.0909ZM467.048 80V53.0909H485.811V58.3729H473.552V63.8913H484.852V69.1864H473.552V74.718H485.811V80H467.048ZM495.705 80H488.715L497.794 53.0909H506.453L515.532 80H508.542L502.222 59.8707H502.012L495.705 80ZM494.772 69.4098H509.383V74.3501H494.772V69.4098ZM528.376 80H518.429V53.0909H528.362C531.104 53.0909 533.465 53.6296 535.444 54.707C537.433 55.7757 538.966 57.3174 540.043 59.332C541.121 61.3379 541.659 63.738 541.659 66.5323C541.659 69.3353 541.121 71.7442 540.043 73.7589C538.974 75.7736 537.446 77.3196 535.458 78.397C533.469 79.4657 531.108 80 528.376 80ZM524.933 74.4553H528.126C529.633 74.4553 530.907 74.2012 531.949 73.6932C533.001 73.1764 533.793 72.3398 534.328 71.1836C534.871 70.0186 535.142 68.4682 535.142 66.5323C535.142 64.5965 534.871 63.0548 534.328 61.9073C533.785 60.7511 532.983 59.9189 531.923 59.4109C530.872 58.8941 529.576 58.6357 528.034 58.6357H524.933V74.4553ZM570.855 66.5455C570.855 69.5062 570.285 72.0157 569.146 74.0742C568.008 76.1327 566.466 77.6963 564.521 78.7649C562.586 79.8336 560.413 80.3679 558.004 80.3679C555.587 80.3679 553.41 79.8292 551.474 78.7518C549.538 77.6744 548.001 76.1108 546.862 74.0611C545.732 72.0026 545.167 69.4974 545.167 66.5455C545.167 63.5848 545.732 61.0752 546.862 59.0167C548.001 56.9582 549.538 55.3946 551.474 54.326C553.41 53.2573 555.587 52.723 558.004 52.723C560.413 52.723 562.586 53.2573 564.521 54.326C566.466 55.3946 568.008 56.9582 569.146 59.0167C570.285 61.0752 570.855 63.5848 570.855 66.5455ZM564.206 66.5455C564.206 64.7936 563.956 63.3132 563.457 62.1044C562.967 60.8956 562.257 59.9802 561.329 59.3583C560.409 58.7364 559.301 58.4254 558.004 58.4254C556.717 58.4254 555.609 58.7364 554.68 59.3583C553.752 59.9802 553.038 60.8956 552.539 62.1044C552.048 63.3132 551.803 64.7936 551.803 66.5455C551.803 68.2973 552.048 69.7777 552.539 70.9865C553.038 72.1953 553.752 73.1107 554.68 73.7326C555.609 74.3545 556.717 74.6655 558.004 74.6655C559.301 74.6655 560.409 74.3545 561.329 73.7326C562.257 73.1107 562.967 72.1953 563.457 70.9865C563.956 69.7777 564.206 68.2973 564.206 66.5455ZM576.567 80.381C575.621 80.381 574.811 80.0482 574.136 79.3825C573.47 78.7167 573.142 77.9109 573.151 76.9648C573.142 76.0363 573.47 75.2436 574.136 74.5866C574.811 73.9209 575.621 73.5881 576.567 73.5881C577.46 73.5881 578.249 73.9209 578.932 74.5866C579.624 75.2436 579.974 76.0363 579.983 76.9648C579.974 77.5955 579.808 78.1693 579.484 78.6861C579.168 79.2029 578.752 79.6146 578.236 79.9212C577.727 80.2277 577.171 80.381 576.567 80.381Z" fill="#551417"/>
<path d="M211.11 121H205.907L215.38 94.0909H221.398L230.884 121H225.681L218.494 99.6094H218.284L211.11 121ZM211.281 110.449H225.471V114.365H211.281V110.449ZM241.093 121.355C239.508 121.355 238.089 120.947 236.836 120.133C235.584 119.318 234.594 118.136 233.867 116.585C233.14 115.035 232.776 113.152 232.776 110.935C232.776 108.693 233.144 106.801 233.88 105.259C234.625 103.709 235.627 102.539 236.889 101.751C238.15 100.954 239.556 100.555 241.107 100.555C242.289 100.555 243.261 100.757 244.023 101.16C244.786 101.554 245.39 102.031 245.837 102.592C246.283 103.144 246.629 103.665 246.875 104.156H247.072V94.0909H251.841V121H247.164V117.82H246.875C246.629 118.311 246.275 118.832 245.81 119.384C245.346 119.927 244.733 120.391 243.971 120.777C243.209 121.162 242.25 121.355 241.093 121.355ZM242.42 117.452C243.428 117.452 244.286 117.181 244.996 116.638C245.705 116.086 246.244 115.319 246.612 114.338C246.98 113.357 247.164 112.214 247.164 110.909C247.164 109.604 246.98 108.47 246.612 107.506C246.253 106.542 245.718 105.794 245.009 105.259C244.308 104.725 243.445 104.458 242.42 104.458C241.361 104.458 240.476 104.734 239.766 105.286C239.057 105.837 238.522 106.599 238.163 107.572C237.804 108.544 237.625 109.656 237.625 110.909C237.625 112.17 237.804 113.296 238.163 114.286C238.531 115.267 239.07 116.042 239.779 116.612C240.498 117.172 241.378 117.452 242.42 117.452ZM270.377 128.568V117.82H270.18C269.935 118.311 269.58 118.832 269.116 119.384C268.652 119.927 268.039 120.391 267.277 120.777C266.514 121.162 265.555 121.355 264.399 121.355C262.814 121.355 261.395 120.947 260.142 120.133C258.889 119.318 257.9 118.136 257.172 116.585C256.445 115.035 256.082 113.152 256.082 110.935C256.082 108.693 256.45 106.801 257.186 105.259C257.93 103.709 258.933 102.539 260.195 101.751C261.456 100.954 262.862 100.555 264.412 100.555C265.595 100.555 266.567 100.757 267.329 101.16C268.091 101.554 268.696 102.031 269.142 102.592C269.589 103.144 269.935 103.665 270.18 104.156H270.469V100.818H275.147V128.568H270.377ZM265.726 117.452C266.733 117.452 267.592 117.181 268.301 116.638C269.011 116.086 269.55 115.319 269.918 114.338C270.285 113.357 270.469 112.214 270.469 110.909C270.469 109.604 270.285 108.47 269.918 107.506C269.558 106.542 269.024 105.794 268.315 105.259C267.614 104.725 266.751 104.458 265.726 104.458C264.666 104.458 263.782 104.734 263.072 105.286C262.362 105.837 261.828 106.599 261.469 107.572C261.11 108.544 260.93 109.656 260.93 110.909C260.93 112.17 261.11 113.296 261.469 114.286C261.837 115.267 262.376 116.042 263.085 116.612C263.803 117.172 264.684 117.452 265.726 117.452ZM292.898 112.512V100.818H297.654V121H293.043V117.413H292.832C292.377 118.543 291.628 119.467 290.585 120.185C289.552 120.904 288.277 121.263 286.762 121.263C285.439 121.263 284.27 120.969 283.254 120.382C282.246 119.787 281.458 118.924 280.889 117.794C280.319 116.655 280.035 115.28 280.035 113.668V100.818H284.791V112.933C284.791 114.211 285.141 115.228 285.842 115.981C286.543 116.734 287.463 117.111 288.601 117.111C289.302 117.111 289.981 116.94 290.638 116.598C291.295 116.257 291.834 115.749 292.254 115.074C292.683 114.391 292.898 113.537 292.898 112.512ZM302.545 121V100.818H307.302V121H302.545ZM304.937 97.9538C304.183 97.9538 303.535 97.7042 302.992 97.2049C302.449 96.6968 302.178 96.0881 302.178 95.3785C302.178 94.6603 302.449 94.0515 302.992 93.5522C303.535 93.0442 304.183 92.7901 304.937 92.7901C305.699 92.7901 306.347 93.0442 306.881 93.5522C307.424 94.0515 307.696 94.6603 307.696 95.3785C307.696 96.0881 307.424 96.6968 306.881 97.2049C306.347 97.7042 305.699 97.9538 304.937 97.9538ZM312.193 121V100.818H316.805V104.182H317.015C317.383 103.017 318.014 102.119 318.907 101.488C319.809 100.849 320.839 100.529 321.995 100.529C322.258 100.529 322.551 100.542 322.875 100.569C323.208 100.586 323.484 100.617 323.703 100.661V105.036C323.501 104.966 323.182 104.904 322.744 104.852C322.314 104.791 321.898 104.76 321.495 104.76C320.628 104.76 319.849 104.948 319.157 105.325C318.473 105.693 317.935 106.205 317.541 106.862C317.146 107.519 316.949 108.277 316.949 109.135V121H312.193ZM332.309 121.407C331.03 121.407 329.878 121.18 328.853 120.724C327.837 120.26 327.031 119.577 326.436 118.674C325.849 117.772 325.555 116.66 325.555 115.337C325.555 114.198 325.766 113.257 326.186 112.512C326.607 111.768 327.18 111.172 327.907 110.725C328.634 110.278 329.453 109.941 330.364 109.713C331.284 109.477 332.235 109.306 333.216 109.201C334.398 109.078 335.357 108.969 336.093 108.873C336.829 108.767 337.363 108.61 337.696 108.4C338.038 108.181 338.209 107.843 338.209 107.388V107.309C338.209 106.319 337.915 105.553 337.328 105.01C336.741 104.467 335.896 104.195 334.792 104.195C333.627 104.195 332.703 104.449 332.02 104.957C331.345 105.465 330.89 106.065 330.653 106.757L326.212 106.126C326.563 104.9 327.141 103.875 327.947 103.052C328.753 102.22 329.738 101.598 330.903 101.186C332.068 100.766 333.356 100.555 334.766 100.555C335.738 100.555 336.706 100.669 337.67 100.897C338.633 101.125 339.514 101.501 340.311 102.027C341.108 102.544 341.747 103.249 342.229 104.142C342.72 105.036 342.965 106.153 342.965 107.493V121H338.392V118.228H338.235C337.946 118.788 337.538 119.314 337.013 119.804C336.496 120.286 335.843 120.676 335.055 120.974C334.276 121.263 333.36 121.407 332.309 121.407ZM333.544 117.912C334.499 117.912 335.327 117.724 336.027 117.347C336.728 116.962 337.267 116.454 337.644 115.823C338.029 115.192 338.222 114.505 338.222 113.76V111.382C338.073 111.505 337.819 111.619 337.46 111.724C337.109 111.829 336.715 111.921 336.277 112C335.839 112.078 335.406 112.149 334.976 112.21C334.547 112.271 334.175 112.324 333.859 112.368C333.15 112.464 332.515 112.622 331.954 112.841C331.394 113.06 330.951 113.366 330.627 113.76C330.303 114.146 330.141 114.645 330.141 115.258C330.141 116.134 330.461 116.795 331.1 117.242C331.74 117.689 332.554 117.912 333.544 117.912ZM362.733 121.407C361.454 121.407 360.302 121.18 359.277 120.724C358.261 120.26 357.455 119.577 356.86 118.674C356.273 117.772 355.979 116.66 355.979 115.337C355.979 114.198 356.19 113.257 356.61 112.512C357.03 111.768 357.604 111.172 358.331 110.725C359.058 110.278 359.877 109.941 360.788 109.713C361.708 109.477 362.658 109.306 363.639 109.201C364.822 109.078 365.781 108.969 366.517 108.873C367.253 108.767 367.787 108.61 368.12 108.4C368.462 108.181 368.632 107.843 368.632 107.388V107.309C368.632 106.319 368.339 105.553 367.752 105.01C367.165 104.467 366.32 104.195 365.216 104.195C364.051 104.195 363.127 104.449 362.444 104.957C361.769 105.465 361.314 106.065 361.077 106.757L356.636 106.126C356.987 104.9 357.565 103.875 358.371 103.052C359.177 102.22 360.162 101.598 361.327 101.186C362.492 100.766 363.78 100.555 365.19 100.555C366.162 100.555 367.13 100.669 368.094 100.897C369.057 101.125 369.938 101.501 370.735 102.027C371.532 102.544 372.171 103.249 372.653 104.142C373.143 105.036 373.389 106.153 373.389 107.493V121H368.816V118.228H368.659C368.37 118.788 367.962 119.314 367.437 119.804C366.92 120.286 366.267 120.676 365.479 120.974C364.699 121.263 363.784 121.407 362.733 121.407ZM363.968 117.912C364.923 117.912 365.751 117.724 366.451 117.347C367.152 116.962 367.691 116.454 368.067 115.823C368.453 115.192 368.646 114.505 368.646 113.76V111.382C368.497 111.505 368.243 111.619 367.883 111.724C367.533 111.829 367.139 111.921 366.701 112C366.263 112.078 365.829 112.149 365.4 112.21C364.971 112.271 364.599 112.324 364.283 112.368C363.574 112.464 362.939 112.622 362.378 112.841C361.818 113.06 361.375 113.366 361.051 113.76C360.727 114.146 360.565 114.645 360.565 115.258C360.565 116.134 360.885 116.795 361.524 117.242C362.164 117.689 362.978 117.912 363.968 117.912ZM387.349 128.568V100.818H392.027V104.156H392.303C392.548 103.665 392.894 103.144 393.341 102.592C393.787 102.031 394.392 101.554 395.154 101.16C395.916 100.757 396.888 100.555 398.071 100.555C399.63 100.555 401.036 100.954 402.288 101.751C403.55 102.539 404.548 103.709 405.284 105.259C406.029 106.801 406.401 108.693 406.401 110.935C406.401 113.152 406.037 115.035 405.31 116.585C404.583 118.136 403.594 119.318 402.341 120.133C401.088 120.947 399.669 121.355 398.084 121.355C396.928 121.355 395.968 121.162 395.206 120.777C394.444 120.391 393.831 119.927 393.367 119.384C392.911 118.832 392.557 118.311 392.303 117.82H392.106V128.568H387.349ZM392.014 110.909C392.014 112.214 392.198 113.357 392.565 114.338C392.942 115.319 393.481 116.086 394.182 116.638C394.891 117.181 395.749 117.452 396.757 117.452C397.808 117.452 398.688 117.172 399.398 116.612C400.107 116.042 400.642 115.267 401.001 114.286C401.369 113.296 401.553 112.17 401.553 110.909C401.553 109.656 401.373 108.544 401.014 107.572C400.655 106.599 400.12 105.837 399.411 105.286C398.701 104.734 397.817 104.458 396.757 104.458C395.741 104.458 394.878 104.725 394.168 105.259C393.459 105.794 392.92 106.542 392.552 107.506C392.193 108.47 392.014 109.604 392.014 110.909ZM415.231 94.0909V121H410.474V94.0909H415.231ZM425.929 121.407C424.65 121.407 423.498 121.18 422.474 120.724C421.457 120.26 420.652 119.577 420.056 118.674C419.469 117.772 419.176 116.66 419.176 115.337C419.176 114.198 419.386 113.257 419.806 112.512C420.227 111.768 420.8 111.172 421.528 110.725C422.255 110.278 423.074 109.941 423.985 109.713C424.904 109.477 425.855 109.306 426.836 109.201C428.018 109.078 428.977 108.969 429.713 108.873C430.449 108.767 430.983 108.61 431.316 108.4C431.658 108.181 431.829 107.843 431.829 107.388V107.309C431.829 106.319 431.535 105.553 430.948 105.01C430.361 104.467 429.516 104.195 428.412 104.195C427.247 104.195 426.323 104.449 425.64 104.957C424.966 105.465 424.51 106.065 424.274 106.757L419.833 106.126C420.183 104.9 420.761 103.875 421.567 103.052C422.373 102.22 423.358 101.598 424.523 101.186C425.688 100.766 426.976 100.555 428.386 100.555C429.358 100.555 430.326 100.669 431.29 100.897C432.253 101.125 433.134 101.501 433.931 102.027C434.728 102.544 435.367 103.249 435.849 104.142C436.34 105.036 436.585 106.153 436.585 107.493V121H432.013V118.228H431.855C431.566 118.788 431.159 119.314 430.633 119.804C430.116 120.286 429.464 120.676 428.675 120.974C427.896 121.263 426.98 121.407 425.929 121.407ZM427.164 117.912C428.119 117.912 428.947 117.724 429.648 117.347C430.348 116.962 430.887 116.454 431.264 115.823C431.649 115.192 431.842 114.505 431.842 113.76V111.382C431.693 111.505 431.439 111.619 431.08 111.724C430.729 111.829 430.335 111.921 429.897 112C429.459 112.078 429.026 112.149 428.596 112.21C428.167 112.271 427.795 112.324 427.48 112.368C426.77 112.464 426.135 112.622 425.574 112.841C425.014 113.06 424.571 113.366 424.247 113.76C423.923 114.146 423.761 114.645 423.761 115.258C423.761 116.134 424.081 116.795 424.72 117.242C425.36 117.689 426.174 117.912 427.164 117.912ZM451.445 100.818V104.497H439.844V100.818H451.445ZM442.708 95.983H447.464V114.93C447.464 115.569 447.561 116.06 447.753 116.401C447.955 116.734 448.218 116.962 448.542 117.085C448.866 117.207 449.225 117.268 449.619 117.268C449.917 117.268 450.189 117.247 450.434 117.203C450.688 117.159 450.881 117.12 451.012 117.085L451.813 120.803C451.559 120.891 451.196 120.987 450.723 121.092C450.259 121.197 449.689 121.258 449.015 121.276C447.823 121.311 446.75 121.131 445.796 120.737C444.841 120.334 444.083 119.712 443.523 118.871C442.971 118.031 442.699 116.979 442.708 115.718V95.983ZM461.231 121.407C459.952 121.407 458.8 121.18 457.775 120.724C456.759 120.26 455.953 119.577 455.358 118.674C454.771 117.772 454.477 116.66 454.477 115.337C454.477 114.198 454.688 113.257 455.108 112.512C455.528 111.768 456.102 111.172 456.829 110.725C457.556 110.278 458.375 109.941 459.286 109.713C460.206 109.477 461.156 109.306 462.138 109.201C463.32 109.078 464.279 108.969 465.015 108.873C465.751 108.767 466.285 108.61 466.618 108.4C466.96 108.181 467.13 107.843 467.13 107.388V107.309C467.13 106.319 466.837 105.553 466.25 105.01C465.663 104.467 464.818 104.195 463.714 104.195C462.549 104.195 461.625 104.449 460.942 104.957C460.267 105.465 459.812 106.065 459.575 106.757L455.134 106.126C455.485 104.9 456.063 103.875 456.869 103.052C457.675 102.22 458.66 101.598 459.825 101.186C460.99 100.766 462.278 100.555 463.688 100.555C464.66 100.555 465.628 100.669 466.592 100.897C467.555 101.125 468.436 101.501 469.233 102.027C470.03 102.544 470.669 103.249 471.151 104.142C471.642 105.036 471.887 106.153 471.887 107.493V121H467.314V118.228H467.157C466.868 118.788 466.46 119.314 465.935 119.804C465.418 120.286 464.765 120.676 463.977 120.974C463.197 121.263 462.282 121.407 461.231 121.407ZM462.466 117.912C463.421 117.912 464.249 117.724 464.949 117.347C465.65 116.962 466.189 116.454 466.565 115.823C466.951 115.192 467.144 114.505 467.144 113.76V111.382C466.995 111.505 466.741 111.619 466.381 111.724C466.031 111.829 465.637 111.921 465.199 112C464.761 112.078 464.327 112.149 463.898 112.21C463.469 112.271 463.097 112.324 462.781 112.368C462.072 112.464 461.437 112.622 460.876 112.841C460.316 113.06 459.873 113.366 459.549 113.76C459.225 114.146 459.063 114.645 459.063 115.258C459.063 116.134 459.383 116.795 460.022 117.242C460.662 117.689 461.476 117.912 462.466 117.912ZM486.892 100.818V104.497H474.961V100.818H486.892ZM477.944 121V98.913C477.944 97.5553 478.224 96.4253 478.785 95.5231C479.354 94.6209 480.116 93.9464 481.071 93.4996C482.026 93.0529 483.086 92.8295 484.251 92.8295C485.074 92.8295 485.806 92.8952 486.445 93.0266C487.084 93.158 487.557 93.2763 487.864 93.3814L486.918 97.0604C486.717 96.9991 486.463 96.9377 486.156 96.8764C485.849 96.8063 485.508 96.7713 485.131 96.7713C484.246 96.7713 483.62 96.9859 483.252 97.4151C482.893 97.8356 482.714 98.44 482.714 99.2283V121H477.944ZM498.661 121.394C496.69 121.394 494.982 120.961 493.537 120.093C492.092 119.226 490.97 118.013 490.173 116.454C489.385 114.895 488.991 113.073 488.991 110.988C488.991 108.903 489.385 107.077 490.173 105.509C490.97 103.941 492.092 102.723 493.537 101.856C494.982 100.989 496.69 100.555 498.661 100.555C500.632 100.555 502.34 100.989 503.786 101.856C505.231 102.723 506.348 103.941 507.136 105.509C507.933 107.077 508.332 108.903 508.332 110.988C508.332 113.073 507.933 114.895 507.136 116.454C506.348 118.013 505.231 119.226 503.786 120.093C502.34 120.961 500.632 121.394 498.661 121.394ZM498.688 117.584C499.756 117.584 500.65 117.29 501.368 116.703C502.086 116.108 502.621 115.311 502.971 114.312C503.33 113.314 503.51 112.201 503.51 110.975C503.51 109.74 503.33 108.623 502.971 107.624C502.621 106.617 502.086 105.815 501.368 105.22C500.65 104.624 499.756 104.326 498.688 104.326C497.593 104.326 496.682 104.624 495.955 105.22C495.236 105.815 494.698 106.617 494.338 107.624C493.988 108.623 493.813 109.74 493.813 110.975C493.813 112.201 493.988 113.314 494.338 114.312C494.698 115.311 495.236 116.108 495.955 116.703C496.682 117.29 497.593 117.584 498.688 117.584ZM512.369 121V100.818H516.981V104.182H517.191C517.559 103.017 518.189 102.119 519.083 101.488C519.985 100.849 521.014 100.529 522.171 100.529C522.433 100.529 522.727 100.542 523.051 100.569C523.384 100.586 523.66 100.617 523.879 100.661V105.036C523.677 104.966 523.357 104.904 522.919 104.852C522.49 104.791 522.074 104.76 521.671 104.76C520.804 104.76 520.024 104.948 519.332 105.325C518.649 105.693 518.111 106.205 517.716 106.862C517.322 107.519 517.125 108.277 517.125 109.135V121H512.369ZM527.039 121V100.818H531.585V104.248H531.821C532.242 103.091 532.938 102.189 533.91 101.541C534.883 100.884 536.043 100.555 537.392 100.555C538.759 100.555 539.911 100.888 540.848 101.554C541.794 102.211 542.46 103.109 542.845 104.248H543.055C543.502 103.126 544.255 102.233 545.315 101.567C546.384 100.893 547.65 100.555 549.112 100.555C550.969 100.555 552.485 101.142 553.659 102.316C554.832 103.49 555.419 105.202 555.419 107.453V121H550.65V108.189C550.65 106.937 550.317 106.021 549.651 105.443C548.985 104.856 548.171 104.563 547.207 104.563C546.06 104.563 545.162 104.922 544.514 105.64C543.874 106.35 543.555 107.274 543.555 108.413V121H538.89V107.992C538.89 106.95 538.575 106.118 537.944 105.496C537.322 104.874 536.508 104.563 535.5 104.563C534.817 104.563 534.195 104.738 533.634 105.088C533.074 105.43 532.627 105.916 532.294 106.547C531.961 107.169 531.795 107.896 531.795 108.728V121H527.039ZM566.052 121.407C564.773 121.407 563.621 121.18 562.597 120.724C561.58 120.26 560.775 119.577 560.179 118.674C559.592 117.772 559.299 116.66 559.299 115.337C559.299 114.198 559.509 113.257 559.929 112.512C560.35 111.768 560.924 111.172 561.651 110.725C562.378 110.278 563.197 109.941 564.108 109.713C565.027 109.477 565.978 109.306 566.959 109.201C568.141 109.078 569.1 108.969 569.836 108.873C570.572 108.767 571.106 108.61 571.439 108.4C571.781 108.181 571.952 107.843 571.952 107.388V107.309C571.952 106.319 571.658 105.553 571.071 105.01C570.484 104.467 569.639 104.195 568.536 104.195C567.371 104.195 566.446 104.449 565.763 104.957C565.089 105.465 564.633 106.065 564.397 106.757L559.956 106.126C560.306 104.9 560.884 103.875 561.69 103.052C562.496 102.22 563.481 101.598 564.646 101.186C565.811 100.766 567.099 100.555 568.509 100.555C569.482 100.555 570.449 100.669 571.413 100.897C572.377 101.125 573.257 101.501 574.054 102.027C574.851 102.544 575.491 103.249 575.972 104.142C576.463 105.036 576.708 106.153 576.708 107.493V121H572.136V118.228H571.978C571.689 118.788 571.282 119.314 570.756 119.804C570.239 120.286 569.587 120.676 568.798 120.974C568.019 121.263 567.103 121.407 566.052 121.407ZM567.287 117.912C568.242 117.912 569.07 117.724 569.771 117.347C570.471 116.962 571.01 116.454 571.387 115.823C571.772 115.192 571.965 114.505 571.965 113.76V111.382C571.816 111.505 571.562 111.619 571.203 111.724C570.852 111.829 570.458 111.921 570.02 112C569.582 112.078 569.149 112.149 568.719 112.21C568.29 112.271 567.918 112.324 567.603 112.368C566.893 112.464 566.258 112.622 565.697 112.841C565.137 113.06 564.694 113.366 564.37 113.76C564.046 114.146 563.884 114.645 563.884 115.258C563.884 116.134 564.204 116.795 564.843 117.242C565.483 117.689 566.297 117.912 567.287 117.912ZM590.669 128.568V100.818H595.346V104.156H595.622C595.867 103.665 596.213 103.144 596.66 102.592C597.107 102.031 597.711 101.554 598.473 101.16C599.235 100.757 600.208 100.555 601.39 100.555C602.949 100.555 604.355 100.954 605.608 101.751C606.869 102.539 607.868 103.709 608.604 105.259C609.348 106.801 609.72 108.693 609.72 110.935C609.72 113.152 609.357 115.035 608.63 116.585C607.903 118.136 606.913 119.318 605.66 120.133C604.408 120.947 602.989 121.355 601.403 121.355C600.247 121.355 599.288 121.162 598.526 120.777C597.764 120.391 597.151 119.927 596.686 119.384C596.231 118.832 595.876 118.311 595.622 117.82H595.425V128.568H590.669ZM595.333 110.909C595.333 112.214 595.517 113.357 595.885 114.338C596.261 115.319 596.8 116.086 597.501 116.638C598.21 117.181 599.069 117.452 600.076 117.452C601.127 117.452 602.008 117.172 602.717 116.612C603.427 116.042 603.961 115.267 604.32 114.286C604.688 113.296 604.872 112.17 604.872 110.909C604.872 109.656 604.692 108.544 604.333 107.572C603.974 106.599 603.44 105.837 602.73 105.286C602.021 104.734 601.136 104.458 600.076 104.458C599.06 104.458 598.197 104.725 597.488 105.259C596.778 105.794 596.24 106.542 595.872 107.506C595.512 108.47 595.333 109.604 595.333 110.909ZM619.601 121.407C618.322 121.407 617.17 121.18 616.145 120.724C615.129 120.26 614.323 119.577 613.728 118.674C613.141 117.772 612.847 116.66 612.847 115.337C612.847 114.198 613.058 113.257 613.478 112.512C613.899 111.768 614.472 111.172 615.199 110.725C615.926 110.278 616.745 109.941 617.656 109.713C618.576 109.477 619.527 109.306 620.508 109.201C621.69 109.078 622.649 108.969 623.385 108.873C624.121 108.767 624.655 108.61 624.988 108.4C625.33 108.181 625.501 107.843 625.501 107.388V107.309C625.501 106.319 625.207 105.553 624.62 105.01C624.033 104.467 623.188 104.195 622.084 104.195C620.919 104.195 619.995 104.449 619.312 104.957C618.637 105.465 618.182 106.065 617.945 106.757L613.504 106.126C613.855 104.9 614.433 103.875 615.239 103.052C616.045 102.22 617.03 101.598 618.195 101.186C619.36 100.766 620.648 100.555 622.058 100.555C623.03 100.555 623.998 100.669 624.962 100.897C625.925 101.125 626.806 101.501 627.603 102.027C628.4 102.544 629.039 103.249 629.521 104.142C630.012 105.036 630.257 106.153 630.257 107.493V121H625.684V118.228H625.527C625.238 118.788 624.83 119.314 624.305 119.804C623.788 120.286 623.135 120.676 622.347 120.974C621.568 121.263 620.652 121.407 619.601 121.407ZM620.836 117.912C621.791 117.912 622.619 117.724 623.319 117.347C624.02 116.962 624.559 116.454 624.936 115.823C625.321 115.192 625.514 114.505 625.514 113.76V111.382C625.365 111.505 625.111 111.619 624.752 111.724C624.401 111.829 624.007 111.921 623.569 112C623.131 112.078 622.698 112.149 622.268 112.21C621.839 112.271 621.467 112.324 621.151 112.368C620.442 112.464 619.807 112.622 619.246 112.841C618.686 113.06 618.243 113.366 617.919 113.76C617.595 114.146 617.433 114.645 617.433 115.258C617.433 116.134 617.753 116.795 618.392 117.242C619.032 117.689 619.846 117.912 620.836 117.912ZM635.04 121V100.818H639.651V104.182H639.862C640.23 103.017 640.86 102.119 641.754 101.488C642.656 100.849 643.685 100.529 644.841 100.529C645.104 100.529 645.398 100.542 645.722 100.569C646.055 100.586 646.331 100.617 646.55 100.661V105.036C646.348 104.966 646.028 104.904 645.59 104.852C645.161 104.791 644.745 104.76 644.342 104.76C643.475 104.76 642.695 104.948 642.003 105.325C641.32 105.693 640.781 106.205 640.387 106.862C639.993 107.519 639.796 108.277 639.796 109.135V121H635.04ZM655.156 121.407C653.877 121.407 652.725 121.18 651.7 120.724C650.684 120.26 649.878 119.577 649.282 118.674C648.696 117.772 648.402 116.66 648.402 115.337C648.402 114.198 648.612 113.257 649.033 112.512C649.453 111.768 650.027 111.172 650.754 110.725C651.481 110.278 652.3 109.941 653.211 109.713C654.131 109.477 655.081 109.306 656.062 109.201C657.245 109.078 658.204 108.969 658.94 108.873C659.676 108.767 660.21 108.61 660.543 108.4C660.884 108.181 661.055 107.843 661.055 107.388V107.309C661.055 106.319 660.762 105.553 660.175 105.01C659.588 104.467 658.743 104.195 657.639 104.195C656.474 104.195 655.55 104.449 654.867 104.957C654.192 105.465 653.737 106.065 653.5 106.757L649.059 106.126C649.41 104.9 649.988 103.875 650.794 103.052C651.599 102.22 652.585 101.598 653.75 101.186C654.915 100.766 656.202 100.555 657.613 100.555C658.585 100.555 659.553 100.669 660.517 100.897C661.48 101.125 662.36 101.501 663.157 102.027C663.955 102.544 664.594 103.249 665.076 104.142C665.566 105.036 665.812 106.153 665.812 107.493V121H661.239V118.228H661.081C660.792 118.788 660.385 119.314 659.86 119.804C659.343 120.286 658.69 120.676 657.902 120.974C657.122 121.263 656.207 121.407 655.156 121.407ZM656.391 117.912C657.346 117.912 658.173 117.724 658.874 117.347C659.575 116.962 660.114 116.454 660.49 115.823C660.876 115.192 661.068 114.505 661.068 113.76V111.382C660.919 111.505 660.665 111.619 660.306 111.724C659.956 111.829 659.562 111.921 659.124 112C658.686 112.078 658.252 112.149 657.823 112.21C657.394 112.271 657.021 112.324 656.706 112.368C655.997 112.464 655.362 112.622 654.801 112.841C654.24 113.06 653.798 113.366 653.474 113.76C653.15 114.146 652.988 114.645 652.988 115.258C652.988 116.134 653.307 116.795 653.947 117.242C654.586 117.689 655.401 117.912 656.391 117.912ZM207.444 169.568V141.818H212.121V145.156H212.397C212.643 144.665 212.989 144.144 213.435 143.592C213.882 143.031 214.487 142.554 215.249 142.16C216.011 141.757 216.983 141.555 218.165 141.555C219.725 141.555 221.131 141.954 222.383 142.751C223.645 143.539 224.643 144.709 225.379 146.259C226.123 147.801 226.496 149.693 226.496 151.935C226.496 154.152 226.132 156.035 225.405 157.585C224.678 159.136 223.688 160.318 222.436 161.133C221.183 161.947 219.764 162.355 218.179 162.355C217.022 162.355 216.063 162.162 215.301 161.777C214.539 161.391 213.926 160.927 213.462 160.384C213.006 159.832 212.651 159.311 212.397 158.82H212.2V169.568H207.444ZM212.108 151.909C212.108 153.214 212.292 154.357 212.66 155.338C213.037 156.319 213.576 157.086 214.276 157.638C214.986 158.181 215.844 158.452 216.852 158.452C217.903 158.452 218.783 158.172 219.493 157.612C220.202 157.042 220.736 156.267 221.096 155.286C221.463 154.296 221.647 153.17 221.647 151.909C221.647 150.656 221.468 149.544 221.109 148.572C220.75 147.599 220.215 146.837 219.506 146.286C218.796 145.734 217.911 145.458 216.852 145.458C215.835 145.458 214.973 145.725 214.263 146.259C213.554 146.794 213.015 147.542 212.647 148.506C212.288 149.47 212.108 150.604 212.108 151.909ZM239.372 162.394C237.401 162.394 235.693 161.961 234.248 161.093C232.803 160.226 231.681 159.013 230.884 157.454C230.096 155.895 229.702 154.073 229.702 151.988C229.702 149.903 230.096 148.077 230.884 146.509C231.681 144.941 232.803 143.723 234.248 142.856C235.693 141.989 237.401 141.555 239.372 141.555C241.343 141.555 243.051 141.989 244.496 142.856C245.942 143.723 247.059 144.941 247.847 146.509C248.644 148.077 249.043 149.903 249.043 151.988C249.043 154.073 248.644 155.895 247.847 157.454C247.059 159.013 245.942 160.226 244.496 161.093C243.051 161.961 241.343 162.394 239.372 162.394ZM239.398 158.584C240.467 158.584 241.361 158.29 242.079 157.703C242.797 157.108 243.331 156.311 243.682 155.312C244.041 154.314 244.221 153.201 244.221 151.975C244.221 150.74 244.041 149.623 243.682 148.624C243.331 147.617 242.797 146.815 242.079 146.22C241.361 145.624 240.467 145.326 239.398 145.326C238.304 145.326 237.393 145.624 236.665 146.22C235.947 146.815 235.408 147.617 235.049 148.624C234.699 149.623 234.524 150.74 234.524 151.975C234.524 153.201 234.699 154.314 235.049 155.312C235.408 156.311 235.947 157.108 236.665 157.703C237.393 158.29 238.304 158.584 239.398 158.584ZM260.569 162.355C258.984 162.355 257.564 161.947 256.312 161.133C255.059 160.318 254.069 159.136 253.342 157.585C252.615 156.035 252.252 154.152 252.252 151.935C252.252 149.693 252.62 147.801 253.356 146.259C254.1 144.709 255.103 143.539 256.364 142.751C257.626 141.954 259.032 141.555 260.582 141.555C261.765 141.555 262.737 141.757 263.499 142.16C264.261 142.554 264.866 143.031 265.312 143.592C265.759 144.144 266.105 144.665 266.35 145.156H266.547V135.091H271.317V162H266.639V158.82H266.35C266.105 159.311 265.75 159.832 265.286 160.384C264.822 160.927 264.209 161.391 263.446 161.777C262.684 162.162 261.725 162.355 260.569 162.355ZM261.896 158.452C262.903 158.452 263.762 158.181 264.471 157.638C265.181 157.086 265.72 156.319 266.087 155.338C266.455 154.357 266.639 153.214 266.639 151.909C266.639 150.604 266.455 149.47 266.087 148.506C265.728 147.542 265.194 146.794 264.484 146.259C263.784 145.725 262.921 145.458 261.896 145.458C260.836 145.458 259.951 145.734 259.242 146.286C258.532 146.837 257.998 147.599 257.639 148.572C257.28 149.544 257.1 150.656 257.1 151.909C257.1 153.17 257.28 154.296 257.639 155.286C258.007 156.267 258.546 157.042 259.255 157.612C259.973 158.172 260.854 158.452 261.896 158.452ZM285.32 162.394C283.297 162.394 281.549 161.974 280.077 161.133C278.615 160.283 277.489 159.083 276.701 157.533C275.912 155.973 275.518 154.138 275.518 152.027C275.518 149.951 275.912 148.129 276.701 146.561C277.498 144.985 278.61 143.758 280.038 142.882C281.466 141.998 283.143 141.555 285.07 141.555C286.314 141.555 287.488 141.757 288.592 142.16C289.704 142.554 290.685 143.167 291.535 143.999C292.393 144.831 293.068 145.891 293.558 147.179C294.049 148.458 294.294 149.982 294.294 151.751V153.21H277.752V150.004H289.735C289.726 149.093 289.529 148.283 289.143 147.573C288.758 146.855 288.219 146.29 287.527 145.878C286.844 145.467 286.047 145.261 285.136 145.261C284.164 145.261 283.31 145.497 282.574 145.97C281.838 146.434 281.264 147.048 280.853 147.81C280.45 148.563 280.244 149.391 280.235 150.293V153.092C280.235 154.265 280.45 155.273 280.879 156.114C281.308 156.946 281.908 157.585 282.679 158.032C283.45 158.47 284.352 158.689 285.386 158.689C286.078 158.689 286.704 158.593 287.265 158.4C287.825 158.198 288.311 157.905 288.723 157.52C289.135 157.134 289.446 156.657 289.656 156.087L294.097 156.587C293.817 157.76 293.282 158.785 292.494 159.661C291.714 160.528 290.716 161.203 289.498 161.685C288.281 162.158 286.888 162.394 285.32 162.394ZM298.318 162V141.818H302.93V145.182H303.14C303.508 144.017 304.139 143.119 305.032 142.488C305.934 141.849 306.964 141.529 308.12 141.529C308.383 141.529 308.676 141.542 309 141.569C309.333 141.586 309.609 141.617 309.828 141.661V146.036C309.626 145.966 309.307 145.904 308.869 145.852C308.439 145.791 308.023 145.76 307.62 145.76C306.753 145.76 305.974 145.948 305.282 146.325C304.598 146.693 304.06 147.205 303.666 147.862C303.271 148.519 303.074 149.277 303.074 150.135V162H298.318ZM331.1 162.394C329.077 162.394 327.329 161.974 325.858 161.133C324.395 160.283 323.269 159.083 322.481 157.533C321.693 155.973 321.298 154.138 321.298 152.027C321.298 149.951 321.693 148.129 322.481 146.561C323.278 144.985 324.39 143.758 325.818 142.882C327.246 141.998 328.924 141.555 330.851 141.555C332.094 141.555 333.268 141.757 334.372 142.16C335.484 142.554 336.465 143.167 337.315 143.999C338.174 144.831 338.848 145.891 339.339 147.179C339.829 148.458 340.074 149.982 340.074 151.751V153.21H323.532V150.004H335.515C335.506 149.093 335.309 148.283 334.924 147.573C334.538 146.855 334 146.29 333.308 145.878C332.624 145.467 331.827 145.261 330.916 145.261C329.944 145.261 329.09 145.497 328.354 145.97C327.618 146.434 327.045 147.048 326.633 147.81C326.23 148.563 326.024 149.391 326.015 150.293V153.092C326.015 154.265 326.23 155.273 326.659 156.114C327.088 156.946 327.688 157.585 328.459 158.032C329.23 158.47 330.132 158.689 331.166 158.689C331.858 158.689 332.484 158.593 333.045 158.4C333.605 158.198 334.092 157.905 334.503 157.52C334.915 157.134 335.226 156.657 335.436 156.087L339.877 156.587C339.597 157.76 339.063 158.785 338.274 159.661C337.495 160.528 336.496 161.203 335.278 161.685C334.061 162.158 332.668 162.394 331.1 162.394ZM360.049 147.153L355.713 147.626C355.591 147.188 355.376 146.776 355.069 146.391C354.772 146.005 354.369 145.694 353.861 145.458C353.353 145.221 352.731 145.103 351.995 145.103C351.005 145.103 350.173 145.318 349.498 145.747C348.833 146.176 348.504 146.732 348.513 147.415C348.504 148.002 348.719 148.48 349.157 148.848C349.604 149.216 350.339 149.518 351.364 149.754L354.807 150.49C356.716 150.902 358.135 151.554 359.064 152.448C360.001 153.341 360.474 154.511 360.483 155.956C360.474 157.226 360.102 158.347 359.366 159.32C358.639 160.283 357.627 161.036 356.331 161.58C355.034 162.123 353.545 162.394 351.863 162.394C349.393 162.394 347.405 161.877 345.898 160.844C344.392 159.801 343.494 158.352 343.205 156.495L347.843 156.048C348.053 156.959 348.5 157.647 349.183 158.111C349.866 158.575 350.755 158.807 351.85 158.807C352.98 158.807 353.887 158.575 354.57 158.111C355.262 157.647 355.608 157.073 355.608 156.39C355.608 155.811 355.385 155.334 354.938 154.957C354.5 154.581 353.817 154.292 352.888 154.09L349.446 153.368C347.51 152.965 346.078 152.286 345.149 151.331C344.221 150.367 343.761 149.15 343.77 147.678C343.761 146.434 344.098 145.357 344.781 144.446C345.473 143.526 346.433 142.817 347.659 142.317C348.894 141.809 350.317 141.555 351.929 141.555C354.294 141.555 356.156 142.059 357.513 143.066C358.88 144.074 359.725 145.436 360.049 147.153ZM373.208 162.394C371.193 162.394 369.463 161.952 368.018 161.067C366.582 160.182 365.473 158.96 364.694 157.401C363.923 155.833 363.538 154.029 363.538 151.988C363.538 149.938 363.932 148.129 364.72 146.561C365.509 144.985 366.621 143.758 368.058 142.882C369.503 141.998 371.211 141.555 373.182 141.555C374.82 141.555 376.27 141.858 377.531 142.462C378.801 143.058 379.813 143.903 380.566 144.998C381.319 146.084 381.749 147.354 381.854 148.808H377.308C377.124 147.836 376.686 147.026 375.994 146.377C375.31 145.721 374.395 145.392 373.248 145.392C372.275 145.392 371.421 145.655 370.685 146.18C369.95 146.697 369.376 147.442 368.964 148.414C368.561 149.386 368.36 150.551 368.36 151.909C368.36 153.284 368.561 154.467 368.964 155.457C369.367 156.438 369.932 157.195 370.659 157.73C371.395 158.255 372.258 158.518 373.248 158.518C373.948 158.518 374.575 158.387 375.126 158.124C375.687 157.852 376.156 157.463 376.532 156.955C376.909 156.446 377.167 155.829 377.308 155.102H381.854C381.74 156.53 381.319 157.795 380.592 158.899C379.865 159.994 378.875 160.853 377.623 161.474C376.37 162.088 374.899 162.394 373.208 162.394ZM398.623 153.512V141.818H403.379V162H398.767V158.413H398.557C398.101 159.543 397.352 160.467 396.31 161.185C395.276 161.904 394.002 162.263 392.487 162.263C391.164 162.263 389.995 161.969 388.978 161.382C387.971 160.787 387.183 159.924 386.613 158.794C386.044 157.655 385.759 156.28 385.759 154.668V141.818H390.516V153.933C390.516 155.211 390.866 156.228 391.567 156.981C392.268 157.734 393.187 158.111 394.326 158.111C395.027 158.111 395.706 157.94 396.363 157.598C397.02 157.257 397.558 156.749 397.979 156.074C398.408 155.391 398.623 154.537 398.623 153.512ZM418.348 141.818V145.497H406.746V141.818H418.348ZM409.61 136.983H414.367V155.93C414.367 156.569 414.463 157.06 414.656 157.401C414.857 157.734 415.12 157.962 415.444 158.085C415.768 158.207 416.127 158.268 416.521 158.268C416.819 158.268 417.091 158.247 417.336 158.203C417.59 158.159 417.783 158.12 417.914 158.085L418.716 161.803C418.462 161.891 418.098 161.987 417.625 162.092C417.161 162.197 416.592 162.258 415.917 162.276C414.726 162.311 413.653 162.131 412.698 161.737C411.743 161.334 410.985 160.712 410.425 159.871C409.873 159.031 409.602 157.979 409.61 156.718V136.983ZM428.133 162.407C426.854 162.407 425.703 162.18 424.678 161.724C423.662 161.26 422.856 160.577 422.26 159.674C421.673 158.772 421.38 157.66 421.38 156.337C421.38 155.198 421.59 154.257 422.01 153.512C422.431 152.768 423.005 152.172 423.732 151.725C424.459 151.278 425.278 150.941 426.189 150.713C427.108 150.477 428.059 150.306 429.04 150.201C430.222 150.078 431.182 149.969 431.917 149.873C432.653 149.767 433.187 149.61 433.52 149.4C433.862 149.181 434.033 148.843 434.033 148.388V148.309C434.033 147.319 433.739 146.553 433.152 146.01C432.566 145.467 431.72 145.195 430.617 145.195C429.452 145.195 428.527 145.449 427.844 145.957C427.17 146.465 426.714 147.065 426.478 147.757L422.037 147.126C422.387 145.9 422.965 144.875 423.771 144.052C424.577 143.22 425.562 142.598 426.727 142.186C427.892 141.766 429.18 141.555 430.59 141.555C431.563 141.555 432.531 141.669 433.494 141.897C434.458 142.125 435.338 142.501 436.135 143.027C436.932 143.544 437.572 144.249 438.053 145.142C438.544 146.036 438.789 147.153 438.789 148.493V162H434.217V159.228H434.059C433.77 159.788 433.363 160.314 432.837 160.804C432.32 161.286 431.668 161.676 430.879 161.974C430.1 162.263 429.184 162.407 428.133 162.407ZM429.368 158.912C430.323 158.912 431.151 158.724 431.852 158.347C432.552 157.962 433.091 157.454 433.468 156.823C433.853 156.192 434.046 155.505 434.046 154.76V152.382C433.897 152.505 433.643 152.619 433.284 152.724C432.933 152.829 432.539 152.921 432.101 153C431.663 153.078 431.23 153.149 430.801 153.21C430.371 153.271 429.999 153.324 429.684 153.368C428.974 153.464 428.339 153.622 427.778 153.841C427.218 154.06 426.776 154.366 426.451 154.76C426.127 155.146 425.965 155.645 425.965 156.258C425.965 157.134 426.285 157.795 426.924 158.242C427.564 158.689 428.379 158.912 429.368 158.912ZM443.572 162V141.818H448.184V145.182H448.394C448.762 144.017 449.392 143.119 450.286 142.488C451.188 141.849 452.217 141.529 453.374 141.529C453.636 141.529 453.93 141.542 454.254 141.569C454.587 141.586 454.863 141.617 455.082 141.661V146.036C454.88 145.966 454.561 145.904 454.123 145.852C453.693 145.791 453.277 145.76 452.874 145.76C452.007 145.76 451.228 145.948 450.536 146.325C449.852 146.693 449.314 147.205 448.919 147.862C448.525 148.519 448.328 149.277 448.328 150.135V162H443.572ZM476.223 162.394C474.208 162.394 472.478 161.952 471.033 161.067C469.596 160.182 468.488 158.96 467.709 157.401C466.938 155.833 466.552 154.029 466.552 151.988C466.552 149.938 466.946 148.129 467.735 146.561C468.523 144.985 469.636 143.758 471.072 142.882C472.517 141.998 474.226 141.555 476.196 141.555C477.834 141.555 479.284 141.858 480.546 142.462C481.816 143.058 482.827 143.903 483.581 144.998C484.334 146.084 484.763 147.354 484.868 148.808H480.322C480.138 147.836 479.7 147.026 479.008 146.377C478.325 145.721 477.41 145.392 476.262 145.392C475.29 145.392 474.436 145.655 473.7 146.18C472.964 146.697 472.39 147.442 471.979 148.414C471.576 149.386 471.374 150.551 471.374 151.909C471.374 153.284 471.576 154.467 471.979 155.457C472.382 156.438 472.947 157.195 473.674 157.73C474.41 158.255 475.272 158.518 476.262 158.518C476.963 158.518 477.589 158.387 478.141 158.124C478.702 157.852 479.17 157.463 479.547 156.955C479.924 156.446 480.182 155.829 480.322 155.102H484.868C484.754 156.53 484.334 157.795 483.607 158.899C482.88 159.994 481.89 160.853 480.638 161.474C479.385 162.088 477.913 162.394 476.223 162.394ZM497.577 162.394C495.606 162.394 493.898 161.961 492.453 161.093C491.008 160.226 489.886 159.013 489.089 157.454C488.301 155.895 487.907 154.073 487.907 151.988C487.907 149.903 488.301 148.077 489.089 146.509C489.886 144.941 491.008 143.723 492.453 142.856C493.898 141.989 495.606 141.555 497.577 141.555C499.548 141.555 501.256 141.989 502.702 142.856C504.147 143.723 505.264 144.941 506.052 146.509C506.849 148.077 507.248 149.903 507.248 151.988C507.248 154.073 506.849 155.895 506.052 157.454C505.264 159.013 504.147 160.226 502.702 161.093C501.256 161.961 499.548 162.394 497.577 162.394ZM497.604 158.584C498.672 158.584 499.566 158.29 500.284 157.703C501.002 157.108 501.537 156.311 501.887 155.312C502.246 154.314 502.426 153.201 502.426 151.975C502.426 150.74 502.246 149.623 501.887 148.624C501.537 147.617 501.002 146.815 500.284 146.22C499.566 145.624 498.672 145.326 497.604 145.326C496.509 145.326 495.598 145.624 494.871 146.22C494.152 146.815 493.614 147.617 493.254 148.624C492.904 149.623 492.729 150.74 492.729 151.975C492.729 153.201 492.904 154.314 493.254 155.312C493.614 156.311 494.152 157.108 494.871 157.703C495.598 158.29 496.509 158.584 497.604 158.584ZM511.285 162V141.818H515.831V145.248H516.067C516.488 144.091 517.184 143.189 518.157 142.541C519.129 141.884 520.289 141.555 521.638 141.555C523.005 141.555 524.157 141.888 525.094 142.554C526.04 143.211 526.706 144.109 527.091 145.248H527.301C527.748 144.126 528.501 143.233 529.561 142.567C530.63 141.893 531.896 141.555 533.359 141.555C535.216 141.555 536.731 142.142 537.905 143.316C539.079 144.49 539.665 146.202 539.665 148.453V162H534.896V149.189C534.896 147.937 534.563 147.021 533.897 146.443C533.232 145.856 532.417 145.563 531.453 145.563C530.306 145.563 529.408 145.922 528.76 146.64C528.12 147.35 527.801 148.274 527.801 149.413V162H523.136V148.992C523.136 147.95 522.821 147.118 522.19 146.496C521.568 145.874 520.754 145.563 519.746 145.563C519.063 145.563 518.441 145.738 517.881 146.088C517.32 146.43 516.873 146.916 516.54 147.547C516.208 148.169 516.041 148.896 516.041 149.728V162H511.285ZM544.491 169.568V141.818H549.168V145.156H549.444C549.69 144.665 550.036 144.144 550.482 143.592C550.929 143.031 551.533 142.554 552.295 142.16C553.058 141.757 554.03 141.555 555.212 141.555C556.772 141.555 558.177 141.954 559.43 142.751C560.691 143.539 561.69 144.709 562.426 146.259C563.17 147.801 563.543 149.693 563.543 151.935C563.543 154.152 563.179 156.035 562.452 157.585C561.725 159.136 560.735 160.318 559.483 161.133C558.23 161.947 556.811 162.355 555.225 162.355C554.069 162.355 553.11 162.162 552.348 161.777C551.586 161.391 550.973 160.927 550.509 160.384C550.053 159.832 549.698 159.311 549.444 158.82H549.247V169.568H544.491ZM549.155 151.909C549.155 153.214 549.339 154.357 549.707 155.338C550.084 156.319 550.622 157.086 551.323 157.638C552.033 158.181 552.891 158.452 553.898 158.452C554.95 158.452 555.83 158.172 556.539 157.612C557.249 157.042 557.783 156.267 558.142 155.286C558.51 154.296 558.694 153.17 558.694 151.909C558.694 150.656 558.515 149.544 558.156 148.572C557.796 147.599 557.262 146.837 556.553 146.286C555.843 145.734 554.958 145.458 553.898 145.458C552.882 145.458 552.02 145.725 551.31 146.259C550.6 146.794 550.062 147.542 549.694 148.506C549.335 149.47 549.155 150.604 549.155 151.909ZM572.372 135.091V162H567.616V135.091H572.372ZM586.198 162.394C584.174 162.394 582.427 161.974 580.955 161.133C579.493 160.283 578.367 159.083 577.579 157.533C576.79 155.973 576.396 154.138 576.396 152.027C576.396 149.951 576.79 148.129 577.579 146.561C578.376 144.985 579.488 143.758 580.916 142.882C582.344 141.998 584.021 141.555 585.948 141.555C587.192 141.555 588.366 141.757 589.47 142.16C590.582 142.554 591.563 143.167 592.413 143.999C593.271 144.831 593.946 145.891 594.436 147.179C594.927 148.458 595.172 149.982 595.172 151.751V153.21H578.63V150.004H590.613C590.604 149.093 590.407 148.283 590.021 147.573C589.636 146.855 589.097 146.29 588.405 145.878C587.722 145.467 586.925 145.261 586.014 145.261C585.042 145.261 584.188 145.497 583.452 145.97C582.716 146.434 582.142 147.048 581.731 147.81C581.328 148.563 581.122 149.391 581.113 150.293V153.092C581.113 154.265 581.328 155.273 581.757 156.114C582.186 156.946 582.786 157.585 583.557 158.032C584.328 158.47 585.23 158.689 586.264 158.689C586.956 158.689 587.582 158.593 588.142 158.4C588.703 158.198 589.189 157.905 589.601 157.52C590.013 157.134 590.324 156.657 590.534 156.087L594.975 156.587C594.695 157.76 594.16 158.785 593.372 159.661C592.592 160.528 591.594 161.203 590.376 161.685C589.159 162.158 587.766 162.394 586.198 162.394ZM609.274 141.818V145.497H597.672V141.818H609.274ZM600.536 136.983H605.292V155.93C605.292 156.569 605.389 157.06 605.581 157.401C605.783 157.734 606.046 157.962 606.37 158.085C606.694 158.207 607.053 158.268 607.447 158.268C607.745 158.268 608.017 158.247 608.262 158.203C608.516 158.159 608.709 158.12 608.84 158.085L609.642 161.803C609.387 161.891 609.024 161.987 608.551 162.092C608.087 162.197 607.517 162.258 606.843 162.276C605.652 162.311 604.579 162.131 603.624 161.737C602.669 161.334 601.911 160.712 601.351 159.871C600.799 159.031 600.527 157.979 600.536 156.718V136.983ZM621.838 162.394C619.867 162.394 618.159 161.961 616.714 161.093C615.268 160.226 614.147 159.013 613.35 157.454C612.562 155.895 612.168 154.073 612.168 151.988C612.168 149.903 612.562 148.077 613.35 146.509C614.147 144.941 615.268 143.723 616.714 142.856C618.159 141.989 619.867 141.555 621.838 141.555C623.809 141.555 625.517 141.989 626.962 142.856C628.408 143.723 629.524 144.941 630.313 146.509C631.11 148.077 631.508 149.903 631.508 151.988C631.508 154.073 631.11 155.895 630.313 157.454C629.524 159.013 628.408 160.226 626.962 161.093C625.517 161.961 623.809 162.394 621.838 162.394ZM621.864 158.584C622.933 158.584 623.826 158.29 624.545 157.703C625.263 157.108 625.797 156.311 626.148 155.312C626.507 154.314 626.686 153.201 626.686 151.975C626.686 150.74 626.507 149.623 626.148 148.624C625.797 147.617 625.263 146.815 624.545 146.22C623.826 145.624 622.933 145.326 621.864 145.326C620.769 145.326 619.858 145.624 619.131 146.22C618.413 146.815 617.874 147.617 617.515 148.624C617.165 149.623 616.99 150.74 616.99 151.975C616.99 153.201 617.165 154.314 617.515 155.312C617.874 156.311 618.413 157.108 619.131 157.703C619.858 158.29 620.769 158.584 621.864 158.584ZM638.475 162.289C637.678 162.289 636.995 162.009 636.426 161.448C635.856 160.888 635.576 160.204 635.585 159.398C635.576 158.61 635.856 157.936 636.426 157.375C636.995 156.814 637.678 156.534 638.475 156.534C639.246 156.534 639.916 156.814 640.486 157.375C641.064 157.936 641.357 158.61 641.366 159.398C641.357 159.933 641.217 160.419 640.946 160.857C640.683 161.295 640.333 161.645 639.895 161.908C639.465 162.162 638.992 162.289 638.475 162.289Z" fill="white"/>
</svg>
