<svg width="94" height="94" viewBox="0 0 94 94" fill="none" xmlns="http://www.w3.org/2000/svg">
<path d="M84.4435 42.0657L79.1168 35.8773C78.0985 34.7023 77.2759 32.509 77.2759 30.9423V24.284C77.2759 20.1323 73.8684 16.7248 69.7168 16.7248H63.0584C61.5309 16.7248 59.2984 15.9023 58.1234 14.884L51.9351 9.55734C49.2326 7.24651 44.8068 7.24651 42.0651 9.55734L35.9159 14.9232C34.7409 15.9023 32.5084 16.7248 30.9809 16.7248H24.2051C20.0534 16.7248 16.6459 20.1323 16.6459 24.284V30.9815C16.6459 32.509 15.8234 34.7023 14.8443 35.8773L9.55678 42.1048C7.28511 44.8073 7.28511 49.194 9.55678 51.8965L14.8443 58.124C15.8234 59.299 16.6459 61.4923 16.6459 63.0198V69.7173C16.6459 73.869 20.0534 77.2765 24.2051 77.2765H30.9809C32.5084 77.2765 34.7409 78.099 35.9159 79.1173L42.1043 84.444C44.8068 86.7548 49.2326 86.7548 51.9743 84.444L58.1626 79.1173C59.3376 78.099 61.5309 77.2765 63.0976 77.2765H69.7559C73.9076 77.2765 77.3151 73.869 77.3151 69.7173V63.059C77.3151 61.5315 78.1376 59.299 79.156 58.124L84.4826 51.9357C86.7543 49.2332 86.7543 44.7682 84.4435 42.0657ZM63.2934 39.5982L44.3759 58.5157C43.8276 59.064 43.0834 59.3773 42.3001 59.3773C41.5168 59.3773 40.7726 59.064 40.2243 58.5157L30.7459 49.0373C29.6101 47.9015 29.6101 46.0215 30.7459 44.8857C31.8818 43.7498 33.7618 43.7498 34.8976 44.8857L42.3001 52.2882L59.1418 35.4465C60.2776 34.3107 62.1576 34.3107 63.2934 35.4465C64.4293 36.5823 64.4293 38.4623 63.2934 39.5982Z" fill="#152B11"/>
</svg>
